<svg width="112" height="112" viewBox="0 0 112 112" fill="none" xmlns="http://www.w3.org/2000/svg">
<path d="M94.6257 56.9874V55.8383C94.6257 46.7646 87.2437 39.3828 78.1705 39.3828H58.651V32.3519C63.0798 31.1776 66.3536 27.1366 66.3536 22.3443C66.3536 16.6349 61.7093 11.9909 56.0003 11.9909C50.2914 11.9909 45.6464 16.6349 45.6464 22.3443C45.6464 27.1366 48.9205 31.1777 53.3488 32.3519V39.3828H33.8295C24.7559 39.3828 17.374 46.7648 17.374 55.8383V56.9874C10.948 58.2294 6.0795 63.8966 6.0795 70.679C6.0795 77.4703 10.9584 83.141 17.3942 84.3753C17.8235 93.0684 25.0312 100.009 33.8295 100.009H78.1707C86.9687 100.009 94.1759 93.0684 94.6056 84.3753C101.042 83.141 105.921 77.4703 105.921 70.679C105.921 63.8963 101.052 58.2294 94.6257 56.9874ZM17.374 78.9046C13.9016 77.7827 11.3824 74.5205 11.3824 70.6789C11.3824 66.8381 13.9016 63.576 17.374 62.4539V78.9046ZM50.9491 22.3443C50.9491 19.5593 53.2147 17.2934 56 17.2934C58.785 17.2934 61.0509 19.5594 61.0509 22.3443C61.0509 25.1292 58.785 27.3952 56 27.3952C53.2147 27.3952 50.9491 25.129 50.9491 22.3443ZM89.3236 83.5538C89.3235 89.7036 84.32 94.7064 78.1705 94.7064H33.8295C27.6795 94.7064 22.6765 89.7036 22.6765 83.5538V55.8383C22.6765 49.6888 27.6795 44.6858 33.8295 44.6858H78.1707C84.3202 44.6858 89.3236 49.6888 89.3236 55.8383V83.5538ZM94.6257 78.9046V62.454C98.098 63.5761 100.618 66.8382 100.618 70.679C100.618 74.5203 98.098 77.7829 94.6257 78.9046Z" fill="#686868"/>
<path d="M75.3367 56.0855C71.0238 56.0855 67.5156 59.5944 67.5156 63.9066C67.5156 68.2195 71.0241 71.7279 75.3367 71.7279C79.6492 71.7279 83.158 68.2192 83.158 63.9066C83.158 59.5945 79.6492 56.0855 75.3367 56.0855ZM75.3367 66.4252C73.9479 66.4252 72.8181 65.2961 72.8181 63.9069C72.8181 62.5181 73.9479 61.3879 75.3367 61.3879C76.7256 61.3879 77.8555 62.5181 77.8555 63.9069C77.8555 65.2959 76.7256 66.4252 75.3367 66.4252Z" fill="#686868"/>
<path d="M36.6633 56.0855C32.3504 56.0855 28.8421 59.5944 28.8421 63.9066C28.8421 68.2195 32.3505 71.7279 36.6633 71.7279C40.9758 71.7279 44.4846 68.2192 44.4846 63.9066C44.4846 59.5945 40.9758 56.0855 36.6633 56.0855ZM36.6633 66.4252C35.2745 66.4252 34.1446 65.2961 34.1446 63.9069C34.1446 62.5181 35.2745 61.3879 36.6633 61.3879C38.052 61.3879 39.1821 62.5181 39.1821 63.9069C39.1821 65.2959 38.052 66.4252 36.6633 66.4252Z" fill="#686868"/>
<path d="M63.2246 79.9709H48.7753C47.3109 79.9709 46.1238 81.158 46.1238 82.6217C46.1238 84.0863 47.3109 85.273 48.7753 85.273H63.2248C64.6888 85.273 65.876 84.086 65.876 82.6217C65.8759 81.1577 64.6888 79.9709 63.2246 79.9709Z" fill="#686868"/>
</svg>
