<svg width="42" height="42" viewBox="0 0 42 42" fill="none" xmlns="http://www.w3.org/2000/svg">
<g clip-path="url(#clip0_25_2)">
<path d="M21 0C16.8466 0 12.7865 1.23163 9.33303 3.53914C5.8796 5.84665 3.18798 9.1264 1.59854 12.9636C0.0090989 16.8009 -0.406771 21.0233 0.403519 25.0969C1.21381 29.1705 3.21386 32.9123 6.15077 35.8492C9.08767 38.7861 12.8295 40.7862 16.9031 41.5965C20.9767 42.4068 25.1991 41.9909 29.0364 40.4015C32.8736 38.812 36.1534 36.1204 38.4609 32.667C40.7684 29.2135 42 25.1534 42 21C41.9939 15.4323 39.7795 10.0944 35.8425 6.15747C31.9056 2.22053 26.5677 0.00607968 21 0V0ZM21 40.0312C17.236 40.0312 13.5565 38.9151 10.4268 36.8239C7.29714 34.7327 4.85786 31.7605 3.41743 28.2829C1.977 24.8054 1.60011 20.9789 2.33444 17.2872C3.06876 13.5955 4.88132 10.2044 7.54288 7.54287C10.2045 4.88131 13.5955 3.06876 17.2872 2.33443C20.9789 1.60011 24.8054 1.97699 28.283 3.41742C31.7605 4.85785 34.7327 7.29713 36.8239 10.4268C38.9151 13.5565 40.0313 17.236 40.0313 21C40.0252 26.0455 38.0182 30.8827 34.4504 34.4504C30.8827 38.0181 26.0455 40.0252 21 40.0312Z" fill="#282828"/>
<path d="M30.2269 11.7436C30.0424 11.5593 29.7922 11.4557 29.5313 11.4557C29.2705 11.4557 29.0203 11.5593 28.8357 11.7436L21.0001 19.6055L13.1677 11.7305C12.9828 11.5455 12.732 11.4417 12.4705 11.4417C12.2089 11.4417 11.9581 11.5455 11.7732 11.7305C11.5883 11.9154 11.4844 12.1662 11.4844 12.4277C11.4844 12.6893 11.5883 12.9401 11.7732 13.125L19.6088 21L11.7732 28.875C11.5887 29.0599 11.4852 29.3106 11.4855 29.5718C11.4858 29.833 11.5899 30.0834 11.7748 30.2679C11.9598 30.4524 12.2104 30.5559 12.4716 30.5555C12.7328 30.5552 12.9832 30.4512 13.1677 30.2662L21.0001 22.3945L28.8357 30.2695C29.0206 30.4545 29.2714 30.5583 29.533 30.5583C29.7945 30.5583 30.0453 30.4545 30.2302 30.2695C30.4151 30.0846 30.519 29.8338 30.519 29.5723C30.519 29.3107 30.4151 29.0599 30.2302 28.875L22.3913 21L30.2302 13.125C30.4111 12.9404 30.5122 12.6921 30.5116 12.4336C30.511 12.1752 30.4087 11.9273 30.2269 11.7436Z" fill="#282828"/>
</g>
<defs>
<clipPath id="clip0_25_2">
<rect width="42" height="42" fill="white"/>
</clipPath>
</defs>
</svg>
