<svg width="100" height="100" viewBox="0 0 100 100" fill="none" xmlns="http://www.w3.org/2000/svg">
<g clip-path="url(#clip0_2_16)">
<path d="M50 90.625C41.9652 90.625 34.1107 88.2424 27.43 83.7785C20.7492 79.3145 15.5422 72.9698 12.4674 65.5465C9.3926 58.1233 8.58809 49.9549 10.1556 42.0745C11.7231 34.194 15.5923 26.9553 21.2738 21.2738C26.9553 15.5923 34.194 11.7231 42.0745 10.1556C49.955 8.58808 58.1233 9.39259 65.5465 12.4674C72.9698 15.5422 79.3145 20.7492 83.7785 27.43C88.2424 34.1107 90.625 41.9651 90.625 50C90.625 60.7744 86.3449 71.1076 78.7262 78.7262C71.1076 86.3449 60.7744 90.625 50 90.625ZM50 15.625C43.2013 15.625 36.5552 17.6411 30.9023 21.4182C25.2494 25.1954 20.8434 30.5641 18.2417 36.8453C15.6399 43.1265 14.9592 50.0381 16.2855 56.7062C17.6119 63.3743 20.8858 69.4994 25.6932 74.3068C30.5007 79.1142 36.6257 82.3881 43.2938 83.7145C49.9619 85.0409 56.8736 84.3601 63.1548 81.7584C69.436 79.1566 74.8046 74.7507 78.5818 69.0977C82.359 63.4448 84.375 56.7987 84.375 50C84.375 40.8832 80.7534 32.1398 74.3068 25.6932C67.8603 19.2466 59.1168 15.625 50 15.625Z" fill="#686868"/>
<path d="M50 53.125C46.9097 53.125 43.8887 52.2086 41.3192 50.4917C38.7497 48.7748 36.747 46.3345 35.5644 43.4794C34.3818 40.6243 34.0723 37.4827 34.6752 34.4517C35.2781 31.4208 36.7663 28.6367 38.9515 26.4515C41.1367 24.2663 43.9208 22.7781 46.9517 22.1752C49.9827 21.5723 53.1243 21.8818 55.9794 23.0644C58.8345 24.247 61.2748 26.2497 62.9917 28.8192C64.7086 31.3887 65.625 34.4097 65.625 37.5C65.625 41.644 63.9788 45.6183 61.0486 48.5486C58.1183 51.4788 54.144 53.125 50 53.125ZM50 28.125C48.1458 28.125 46.3332 28.6748 44.7915 29.705C43.2498 30.7351 42.0482 32.1993 41.3386 33.9124C40.6291 35.6254 40.4434 37.5104 40.8051 39.329C41.1669 41.1476 42.0598 42.818 43.3709 44.1291C44.682 45.4403 46.3525 46.3331 48.171 46.6949C49.9896 47.0566 51.8746 46.871 53.5877 46.1614C55.3007 45.4518 56.7649 44.2502 57.795 42.7085C58.8252 41.1668 59.375 39.3542 59.375 37.5C59.375 35.0136 58.3873 32.629 56.6291 30.8709C54.871 29.1127 52.4864 28.125 50 28.125Z" fill="#686868"/>
<path d="M79.8438 75C79.41 75.0029 78.9804 74.9155 78.5823 74.7434C78.1842 74.5712 77.8262 74.3181 77.5313 74C74.2143 70.382 70.1825 67.4917 65.691 65.5122C61.1994 63.5327 56.3459 62.507 51.4375 62.5H48.5625C39.4132 62.4803 30.6152 66.0218 24.0313 72.375C23.423 72.877 22.6473 73.1303 21.86 73.0843C21.0727 73.0383 20.3318 72.6963 19.7861 72.1269C19.2405 71.5574 18.9302 70.8027 18.9178 70.0142C18.9053 69.2256 19.1914 68.4614 19.7188 67.875C27.4559 60.3967 37.8021 56.2268 48.5625 56.25H51.4375C57.207 56.263 62.9114 57.4691 68.1924 59.7923C73.4734 62.1155 78.217 65.5057 82.125 69.75C82.5379 70.1952 82.8122 70.7511 82.9143 71.3496C83.0164 71.9482 82.9419 72.5635 82.6999 73.1204C82.4579 73.6773 82.0589 74.1517 81.5517 74.4855C81.0445 74.8193 80.451 74.9981 79.8438 75Z" fill="#686868"/>
</g>
<defs>
<clipPath id="clip0_2_16">
<rect width="100" height="100" fill="white"/>
</clipPath>
</defs>
</svg>
